Roman_opsz5_wght700.ufo
<glyph name="exclam" format="2">
  <advance width="475"/>
  <unicode hex="0021"/>
  <outline>
    <contour>
      <point x="322" y="603" type="line" smooth="yes"/>
      <point x="324" y="618"/>
      <point x="324" y="620"/>
      <point x="324" y="631" type="curve" smooth="yes"/>
      <point x="324" y="680"/>
      <point x="281" y="711"/>
      <point x="238" y="711" type="curve" smooth="yes"/>
      <point x="195" y="711"/>
      <point x="152" y="680"/>
      <point x="152" y="631" type="curve" smooth="yes"/>
      <point x="152" y="620"/>
      <point x="152" y="618"/>
      <point x="154" y="603" type="curve" smooth="yes"/>
      <point x="195" y="271" type="line" smooth="yes"/>
      <point x="199" y="241"/>
      <point x="205" y="239"/>
      <point x="231" y="239" type="curve" smooth="yes"/>
      <point x="245" y="239" type="line" smooth="yes"/>
      <point x="271" y="239"/>
      <point x="277" y="241"/>
      <point x="281" y="271" type="curve" smooth="yes"/>
    </contour>
    <contour>
      <point x="324" y="86" type="curve" smooth="yes"/>
      <point x="324" y="133"/>
      <point x="285" y="172"/>
      <point x="238" y="172" type="curve" smooth="yes"/>
      <point x="191" y="172"/>
      <point x="152" y="133"/>
      <point x="152" y="86" type="curve" smooth="yes"/>
      <point x="152" y="39"/>
      <point x="191" y="0"/>
      <point x="238" y="0" type="curve" smooth="yes"/>
      <point x="285" y="0"/>
      <point x="324" y="39"/>
    </contour>
  </outline>
</glyph>
<glyph name="hyphen" format="2">
  <advance width="516"/>
  <unicode hex="002D"/>
  <outline>
    <contour>
      <point x="419" y="282" type="line"/>
      <point x="33" y="282" type="line"/>
      <point x="33" y="162" type="line"/>
      <point x="419" y="162" type="line"/>
    </contour>
  </outline>
</glyph>
<glyph name="slash" format="2">
  <advance width="758"/>
  <unicode hex="002F"/>
  <outline>
    <contour>
      <point x="652" y="681" type="line" smooth="yes"/>
      <point x="657" y="690"/>
      <point x="660" y="697"/>
      <point x="660" y="707" type="curve" smooth="yes"/>
      <point x="660" y="730"/>
      <point x="641" y="750"/>
      <point x="617" y="750" type="curve" smooth="yes"/>
      <point x="597" y="750"/>
      <point x="584" y="738"/>
      <point x="576" y="722" type="curve" smooth="yes"/>
      <point x="106" y="-181" type="line" smooth="yes"/>
      <point x="101" y="-190"/>
      <point x="98" y="-197"/>
      <point x="98" y="-207" type="curve" smooth="yes"/>
      <point x="98" y="-230"/>
      <point x="117" y="-250"/>
      <point x="141" y="-250" type="curve" smooth="yes"/>
      <point x="161" y="-250"/>
      <point x="174" y="-238"/>
      <point x="182" y="-222" type="curve" smooth="yes"/>
    </contour>
  </outline>
</glyph>
<glyph name="zero" format="2">
  <advance width="758"/>
  <unicode hex="0030"/>
  <outline>
    <contour>
      <point x="685" y="317" type="curve" smooth="yes"/>
      <point x="685" y="485"/>
      <point x="644" y="661"/>
      <point x="379" y="661" type="curve" smooth="yes"/>
      <point x="117" y="661"/>
      <point x="73" y="489"/>
      <point x="73" y="317" type="curve" smooth="yes"/>
      <point x="73" y="139"/>
      <point x="125" y="-17"/>
      <point x="379" y="-17" type="curve" smooth="yes"/>
      <point x="637" y="-17"/>
      <point x="685" y="143"/>
    </contour>
    <contour>
      <point x="379" y="39" type="curve" smooth="yes"/>
      <point x="340" y="39"/>
      <point x="259" y="49"/>
      <point x="237" y="130" type="curve" smooth="yes"/>
      <point x="224" y="179"/>
      <point x="223" y="260"/>
      <point x="223" y="332" type="curve" smooth="yes"/>
      <point x="223" y="405"/>
      <point x="223" y="484"/>
      <point x="240" y="532" type="curve" smooth="yes"/>
      <point x="257" y="577"/>
      <point x="309" y="605"/>
      <point x="379" y="605" type="curve" smooth="yes"/>
      <point x="438" y="605"/>
      <point x="499" y="585"/>
      <point x="519" y="527" type="curve" smooth="yes"/>
      <point x="535" y="481"/>
      <point x="535" y="398"/>
      <point x="535" y="332" type="curve" smooth="yes"/>
      <point x="535" y="271"/>
      <point x="535" y="177"/>
      <point x="520" y="128" type="curve" smooth="yes"/>
      <point x="496" y="48"/>
      <point x="416" y="39"/>
    </contour>
  </outline>
</glyph>
<glyph name="six" format="2">
  <advance width="758"/>
  <unicode hex="0036"/>
  <outline>
    <contour>
      <point x="234" y="345" type="curve"/>
      <point x="238" y="435"/>
      <point x="241" y="488"/>
      <point x="291" y="543" type="curve" smooth="yes"/>
      <point x="320" y="574"/>
      <point x="379" y="605"/>
      <point x="457" y="605" type="curve" smooth="yes"/>
      <point x="468" y="605"/>
      <point x="503" y="605"/>
      <point x="529" y="587" type="curve"/>
      <point x="521" y="582"/>
      <point x="494" y="562"/>
      <point x="494" y="522" type="curve" smooth="yes"/>
      <point x="494" y="476"/>
      <point x="529" y="447"/>
      <point x="569" y="447" type="curve" smooth="yes"/>
      <point x="603" y="447"/>
      <point x="644" y="470"/>
      <point x="644" y="524" type="curve" smooth="yes"/>
      <point x="644" y="575"/>
      <point x="616" y="661"/>
      <point x="457" y="661" type="curve" smooth="yes"/>
      <point x="236" y="661"/>
      <point x="77" y="533"/>
      <point x="77" y="319" type="curve" smooth="yes"/>
      <point x="77" y="108"/>
      <point x="174" y="-17"/>
      <point x="384" y="-17" type="curve" smooth="yes"/>
      <point x="444" y="-17"/>
      <point x="513" y="-13"/>
      <point x="583" y="33" type="curve" smooth="yes"/>
      <point x="636" y="68"/>
      <point x="681" y="115"/>
      <point x="681" y="206" type="curve" smooth="yes"/>
      <point x="681" y="339"/>
      <point x="570" y="426"/>
      <point x="405" y="426" type="curve" smooth="yes"/>
      <point x="338" y="426"/>
      <point x="275" y="398"/>
    </contour>
    <contour>
      <point x="384" y="44" type="curve" smooth="yes"/>
      <point x="251" y="44"/>
      <point x="237" y="140"/>
      <point x="237" y="221" type="curve" smooth="yes"/>
      <point x="237" y="295"/>
      <point x="293" y="370"/>
      <point x="392" y="370" type="curve" smooth="yes"/>
      <point x="524" y="370"/>
      <point x="524" y="290"/>
      <point x="524" y="207" type="curve" smooth="yes"/>
      <point x="524" y="124"/>
      <point x="524" y="44"/>
    </contour>
  </outline>
</glyph>
<glyph name="D" format="2">
  <advance width="1137"/>
  <unicode hex="0044"/>
  <outline>
    <contour>
      <point x="96" y="686" type="line"/>
      <point x="96" y="619" type="line"/>
      <point x="202" y="619" type="line"/>
      <point x="202" y="67" type="line"/>
      <point x="96" y="67" type="line"/>
      <point x="96" y="0" type="line"/>
      <point x="608" y="0" type="line" smooth="yes"/>
      <point x="868" y="0"/>
      <point x="1039" y="139"/>
      <point x="1039" y="337" type="curve" smooth="yes"/>
      <point x="1039" y="546"/>
      <point x="863" y="686"/>
      <point x="608" y="686" type="curve" smooth="yes"/>
    </contour>
    <contour>
      <point x="350" y="67" type="line"/>
      <point x="350" y="619" type="line"/>
      <point x="567" y="619" type="line" smooth="yes"/>
      <point x="642" y="619"/>
      <point x="728" y="605"/>
      <point x="787" y="562" type="curve" smooth="yes"/>
      <point x="838" y="524"/>
      <point x="875" y="469"/>
      <point x="875" y="338" type="curve" smooth="yes"/>
      <point x="875" y="246"/>
      <point x="868" y="67"/>
      <point x="568" y="67" type="curve" smooth="yes"/>
    </contour>
  </outline>
</glyph>
<glyph name="L" format="2">
  <advance width="897"/>
  <unicode hex="004C"/>
  <outline>
    <contour>
      <point x="820" y="229" type="line"/>
      <point x="737" y="229" type="line"/>
      <point x="709" y="84"/>
      <point x="594" y="67"/>
      <point x="506" y="67" type="curve" smooth="yes"/>
      <point x="354" y="67" type="line"/>
      <point x="354" y="619" type="line"/>
      <point x="486" y="619" type="line"/>
      <point x="486" y="686" type="line"/>
      <point x="436" y="682"/>
      <point x="334" y="682"/>
      <point x="280" y="682" type="curve" smooth="yes"/>
      <point x="247" y="682"/>
      <point x="156" y="683"/>
      <point x="92" y="686" type="curve"/>
      <point x="92" y="619" type="line"/>
      <point x="198" y="619" type="line"/>
      <point x="198" y="67" type="line"/>
      <point x="92" y="67" type="line"/>
      <point x="92" y="0" type="line"/>
      <point x="781" y="0" type="line"/>
    </contour>
  </outline>
</glyph>
<glyph name="N" format="2">
  <advance width="1152"/>
  <unicode hex="004E"/>
  <outline>
    <contour>
      <point x="364" y="674" type="line" smooth="yes"/>
      <point x="351" y="686"/>
      <point x="345" y="686"/>
      <point x="327" y="686" type="curve" smooth="yes"/>
      <point x="92" y="686" type="line"/>
      <point x="92" y="619" type="line"/>
      <point x="198" y="619" type="line"/>
      <point x="198" y="67" type="line"/>
      <point x="92" y="67" type="line"/>
      <point x="92" y="0" type="line"/>
      <point x="131" y="2"/>
      <point x="185" y="4"/>
      <point x="243" y="4" type="curve" smooth="yes"/>
      <point x="302" y="4"/>
      <point x="354" y="2"/>
      <point x="395" y="0" type="curve"/>
      <point x="395" y="67" type="line"/>
      <point x="289" y="67" type="line"/>
      <point x="289" y="563" type="line"/>
      <point x="864" y="14" type="line" smooth="yes"/>
      <point x="879" y="0"/>
      <point x="880" y="0"/>
      <point x="902" y="0" type="curve" smooth="yes"/>
      <point x="917" y="0" type="line" smooth="yes"/>
      <point x="948" y="0"/>
      <point x="955" y="6"/>
      <point x="955" y="38" type="curve" smooth="yes"/>
      <point x="955" y="619" type="line"/>
      <point x="1061" y="619" type="line"/>
      <point x="1061" y="686" type="line"/>
      <point x="1022" y="684"/>
      <point x="968" y="682"/>
      <point x="910" y="682" type="curve" smooth="yes"/>
      <point x="851" y="682"/>
      <point x="799" y="684"/>
      <point x="758" y="686" type="curve"/>
      <point x="758" y="619" type="line"/>
      <point x="864" y="619" type="line"/>
      <point x="864" y="196" type="line"/>
    </contour>
  </outline>
</glyph>
<glyph name="O" format="2">
  <advance width="1122"/>
  <unicode hex="004F"/>
  <outline>
    <contour>
      <point x="1024" y="338" type="curve" smooth="yes"/>
      <point x="1024" y="519"/>
      <point x="888" y="703"/>
      <point x="561" y="703" type="curve" smooth="yes"/>
      <point x="233" y="703"/>
      <point x="98" y="518"/>
      <point x="98" y="338" type="curve" smooth="yes"/>
      <point x="98" y="162"/>
      <point x="234" y="-17"/>
      <point x="561" y="-17" type="curve" smooth="yes"/>
      <point x="889" y="-17"/>
      <point x="1024" y="163"/>
    </contour>
    <contour>
      <point x="561" y="47" type="curve" smooth="yes"/>
      <point x="341" y="47"/>
      <point x="270" y="187"/>
      <point x="270" y="355" type="curve" smooth="yes"/>
      <point x="270" y="421"/>
      <point x="281" y="509"/>
      <point x="346" y="571" type="curve" smooth="yes"/>
      <point x="408" y="628"/>
      <point x="496" y="641"/>
      <point x="561" y="641" type="curve" smooth="yes"/>
      <point x="626" y="641"/>
      <point x="709" y="629"/>
      <point x="774" y="572" type="curve" smooth="yes"/>
      <point x="840" y="514"/>
      <point x="852" y="423"/>
      <point x="852" y="355" type="curve" smooth="yes"/>
      <point x="852" y="171"/>
      <point x="767" y="47"/>
    </contour>
  </outline>
</glyph>
<glyph name="Z" format="2">
  <advance width="919"/>
  <unicode hex="005A"/>
  <outline>
    <contour>
      <point x="808" y="618" type="line" smooth="yes"/>
      <point x="821" y="631"/>
      <point x="821" y="633"/>
      <point x="821" y="651" type="curve" smooth="yes"/>
      <point x="821" y="685"/>
      <point x="807" y="686"/>
      <point x="783" y="686" type="curve" smooth="yes"/>
      <point x="134" y="686" type="line"/>
      <point x="118" y="480" type="line"/>
      <point x="201" y="480" type="line"/>
      <point x="215" y="619"/>
      <point x="396" y="619"/>
      <point x="438" y="619" type="curve" smooth="yes"/>
      <point x="611" y="619" type="line"/>
      <point x="111" y="72" type="line" smooth="yes"/>
      <point x="98" y="59"/>
      <point x="98" y="57"/>
      <point x="98" y="37" type="curve" smooth="yes"/>
      <point x="98" y="5"/>
      <point x="106" y="0"/>
      <point x="136" y="0" type="curve" smooth="yes"/>
      <point x="807" y="0" type="line"/>
      <point x="830" y="240" type="line"/>
      <point x="747" y="240" type="line"/>
      <point x="730" y="78"/>
      <point x="582" y="73"/>
      <point x="497" y="73" type="curve" smooth="yes"/>
      <point x="310" y="73" type="line"/>
    </contour>
  </outline>
</glyph>
<glyph name="bracketleft" format="2">
  <advance width="438"/>
  <unicode hex="005B"/>
  <outline>
    <contour>
      <point x="390" y="664" type="line"/>
      <point x="390" y="750" type="line"/>
      <point x="174" y="750" type="line"/>
      <point x="174" y="-250" type="line"/>
      <point x="390" y="-250" type="line"/>
      <point x="390" y="-164" type="line"/>
      <point x="260" y="-164" type="line"/>
      <point x="260" y="664" type="line"/>
    </contour>
  </outline>
</glyph>
<glyph name="bracketright" format="2">
  <advance width="438"/>
  <unicode hex="005D"/>
  <outline>
    <contour>
      <point x="265" y="750" type="line"/>
      <point x="49" y="750" type="line"/>
      <point x="49" y="664" type="line"/>
      <point x="179" y="664" type="line"/>
      <point x="179" y="-164" type="line"/>
      <point x="49" y="-164" type="line"/>
      <point x="49" y="-250" type="line"/>
      <point x="265" y="-250" type="line"/>
    </contour>
  </outline>
</glyph>
<glyph name="b" format="2">
  <advance width="838"/>
  <unicode hex="0062"/>
  <outline>
    <contour>
      <point x="281" y="694" type="line"/>
      <point x="84" y="686" type="line"/>
      <point x="84" y="619" type="line"/>
      <point x="148" y="619"/>
      <point x="156" y="619"/>
      <point x="156" y="580" type="curve" smooth="yes"/>
      <point x="156" y="0" type="line"/>
      <point x="239" y="0" type="line"/>
      <point x="267" y="52" type="line"/>
      <point x="337" y="2"/>
      <point x="409" y="-8"/>
      <point x="460" y="-8" type="curve" smooth="yes"/>
      <point x="669" y="-8"/>
      <point x="774" y="100"/>
      <point x="774" y="223" type="curve" smooth="yes"/>
      <point x="774" y="332"/>
      <point x="689" y="452"/>
      <point x="476" y="452" type="curve" smooth="yes"/>
      <point x="379" y="452"/>
      <point x="312" y="425"/>
      <point x="281" y="409" type="curve"/>
    </contour>
    <contour>
      <point x="289" y="311" type="line" smooth="yes"/>
      <point x="289" y="331"/>
      <point x="289" y="332"/>
      <point x="308" y="347" type="curve" smooth="yes"/>
      <point x="356" y="386"/>
      <point x="418" y="396"/>
      <point x="460" y="396" type="curve" smooth="yes"/>
      <point x="624" y="396"/>
      <point x="624" y="278"/>
      <point x="624" y="224" type="curve" smooth="yes"/>
      <point x="624" y="170"/>
      <point x="624" y="48"/>
      <point x="446" y="48" type="curve" smooth="yes"/>
      <point x="361" y="48"/>
      <point x="312" y="97"/>
      <point x="289" y="129" type="curve"/>
    </contour>
  </outline>
</glyph>
<glyph name="c" format="2">
  <advance width="677"/>
  <unicode hex="0063"/>
  <outline>
    <contour>
      <point x="466" y="389" type="curve"/>
      <point x="458" y="377"/>
      <point x="455" y="362"/>
      <point x="455" y="347" type="curve" smooth="yes"/>
      <point x="455" y="304"/>
      <point x="487" y="272"/>
      <point x="530" y="272" type="curve" smooth="yes"/>
      <point x="571" y="272"/>
      <point x="605" y="301"/>
      <point x="605" y="348" type="curve" smooth="yes"/>
      <point x="605" y="456"/>
      <point x="456" y="456"/>
      <point x="388" y="456" type="curve" smooth="yes"/>
      <point x="113" y="456"/>
      <point x="65" y="298"/>
      <point x="65" y="222" type="curve" smooth="yes"/>
      <point x="65" y="120"/>
      <point x="144" y="-8"/>
      <point x="380" y="-8" type="curve" smooth="yes"/>
      <point x="407" y="-8"/>
      <point x="474" y="-8"/>
      <point x="531" y="16" type="curve" smooth="yes"/>
      <point x="597" y="45"/>
      <point x="621" y="99"/>
      <point x="621" y="110" type="curve" smooth="yes"/>
      <point x="621" y="132"/>
      <point x="602" y="132"/>
      <point x="579" y="132" type="curve" smooth="yes"/>
      <point x="550" y="132"/>
      <point x="547" y="132"/>
      <point x="538" y="116" type="curve" smooth="yes"/>
      <point x="524" y="89"/>
      <point x="496" y="54"/>
      <point x="411" y="54" type="curve" smooth="yes"/>
      <point x="361" y="54"/>
      <point x="309" y="64"/>
      <point x="270" y="94" type="curve" smooth="yes"/>
      <point x="235" y="120"/>
      <point x="215" y="162"/>
      <point x="215" y="225" type="curve" smooth="yes"/>
      <point x="215" y="351"/>
      <point x="278" y="394"/>
      <point x="390" y="394" type="curve" smooth="yes"/>
      <point x="434" y="394"/>
      <point x="456" y="391"/>
    </contour>
  </outline>
</glyph>
<glyph name="h" format="2">
  <advance width="838"/>
  <unicode hex="0068"/>
  <outline>
    <contour>
      <point x="704" y="295" type="line" smooth="yes"/>
      <point x="704" y="443"/>
      <point x="584" y="452"/>
      <point x="510" y="452" type="curve" smooth="yes"/>
      <point x="412" y="452"/>
      <point x="341" y="417"/>
      <point x="294" y="358" type="curve"/>
      <point x="294" y="694" type="line"/>
      <point x="97" y="686" type="line"/>
      <point x="97" y="619" type="line"/>
      <point x="161" y="619"/>
      <point x="169" y="619"/>
      <point x="169" y="580" type="curve" smooth="yes"/>
      <point x="169" y="67" type="line"/>
      <point x="97" y="67" type="line"/>
      <point x="97" y="0" type="line"/>
      <point x="138" y="2"/>
      <point x="196" y="4"/>
      <point x="236" y="4" type="curve" smooth="yes"/>
      <point x="273" y="4"/>
      <point x="330" y="3"/>
      <point x="374" y="0" type="curve"/>
      <point x="374" y="67" type="line"/>
      <point x="302" y="67" type="line"/>
      <point x="302" y="242" type="line" smooth="yes"/>
      <point x="302" y="364"/>
      <point x="425" y="396"/>
      <point x="487" y="396" type="curve" smooth="yes"/>
      <point x="551" y="396"/>
      <point x="571" y="370"/>
      <point x="571" y="298" type="curve" smooth="yes"/>
      <point x="571" y="67" type="line"/>
      <point x="499" y="67" type="line"/>
      <point x="499" y="0" type="line"/>
      <point x="540" y="2"/>
      <point x="598" y="4"/>
      <point x="638" y="4" type="curve" smooth="yes"/>
      <point x="675" y="4"/>
      <point x="732" y="3"/>
      <point x="776" y="0" type="curve"/>
      <point x="776" y="67" type="line"/>
      <point x="704" y="67" type="line"/>
    </contour>
  </outline>
</glyph>
<glyph name="i" format="2">
  <advance width="436"/>
  <unicode hex="0069"/>
  <outline>
    <contour>
      <point x="307" y="609" type="curve" smooth="yes"/>
      <point x="307" y="658"/>
      <point x="267" y="695"/>
      <point x="221" y="695" type="curve" smooth="yes"/>
      <point x="174" y="695"/>
      <point x="135" y="656"/>
      <point x="135" y="609" type="curve" smooth="yes"/>
      <point x="135" y="562"/>
      <point x="173" y="523"/>
      <point x="221" y="523" type="curve" smooth="yes"/>
      <point x="267" y="523"/>
      <point x="307" y="560"/>
    </contour>
    <contour>
      <point x="104" y="444" type="line"/>
      <point x="104" y="377" type="line"/>
      <point x="166" y="377"/>
      <point x="173" y="377"/>
      <point x="173" y="338" type="curve" smooth="yes"/>
      <point x="173" y="67" type="line"/>
      <point x="101" y="67" type="line"/>
      <point x="101" y="0" type="line"/>
      <point x="145" y="3"/>
      <point x="190" y="4"/>
      <point x="234" y="4" type="curve" smooth="yes"/>
      <point x="277" y="4"/>
      <point x="320" y="3"/>
      <point x="363" y="0" type="curve"/>
      <point x="363" y="67" type="line"/>
      <point x="298" y="67" type="line"/>
      <point x="298" y="452" type="line"/>
    </contour>
  </outline>
</glyph>
<glyph name="o" format="2">
  <advance width="758"/>
  <unicode hex="006F"/>
  <outline>
    <contour>
      <point x="701" y="217" type="curve" smooth="yes"/>
      <point x="701" y="329"/>
      <point x="613" y="456"/>
      <point x="379" y="456" type="curve" smooth="yes"/>
      <point x="142" y="456"/>
      <point x="57" y="327"/>
      <point x="57" y="217" type="curve" smooth="yes"/>
      <point x="57" y="111"/>
      <point x="145" y="-8"/>
      <point x="379" y="-8" type="curve" smooth="yes"/>
      <point x="614" y="-8"/>
      <point x="701" y="111"/>
    </contour>
    <contour>
      <point x="379" y="54" type="curve" smooth="yes"/>
      <point x="207" y="54"/>
      <point x="207" y="147"/>
      <point x="207" y="229" type="curve" smooth="yes"/>
      <point x="207" y="308"/>
      <point x="207" y="400"/>
      <point x="379" y="400" type="curve" smooth="yes"/>
      <point x="551" y="400"/>
      <point x="551" y="307"/>
      <point x="551" y="229" type="curve" smooth="yes"/>
      <point x="551" y="147"/>
      <point x="551" y="54"/>
    </contour>
  </outline>
</glyph>
<glyph name="p" format="2">
  <advance width="838"/>
  <unicode hex="0070"/>
  <outline>
    <contour>
      <point x="361" y="-127" type="line"/>
      <point x="289" y="-127" type="line"/>
      <point x="289" y="37" type="line"/>
      <point x="317" y="20"/>
      <point x="375" y="-8"/>
      <point x="460" y="-8" type="curve" smooth="yes"/>
      <point x="669" y="-8"/>
      <point x="774" y="101"/>
      <point x="774" y="223" type="curve" smooth="yes"/>
      <point x="774" y="331"/>
      <point x="693" y="452"/>
      <point x="484" y="452" type="curve" smooth="yes"/>
      <point x="445" y="452"/>
      <point x="361" y="449"/>
      <point x="281" y="408" type="curve"/>
      <point x="281" y="452" type="line"/>
      <point x="84" y="444" type="line"/>
      <point x="84" y="377" type="line"/>
      <point x="101" y="377" type="line" smooth="yes"/>
      <point x="156" y="377"/>
      <point x="156" y="371"/>
      <point x="156" y="343" type="curve" smooth="yes"/>
      <point x="156" y="-127" type="line"/>
      <point x="84" y="-127" type="line"/>
      <point x="84" y="-194" type="line"/>
      <point x="124" y="-192"/>
      <point x="182" y="-190"/>
      <point x="222" y="-190" type="curve" smooth="yes"/>
      <point x="241" y="-190"/>
      <point x="306" y="-191"/>
      <point x="361" y="-194" type="curve"/>
    </contour>
    <contour>
      <point x="289" y="327" type="line"/>
      <point x="340" y="380"/>
      <point x="418" y="390"/>
      <point x="458" y="390" type="curve" smooth="yes"/>
      <point x="568" y="390"/>
      <point x="624" y="318"/>
      <point x="624" y="222" type="curve" smooth="yes"/>
      <point x="624" y="112"/>
      <point x="550" y="48"/>
      <point x="445" y="48" type="curve" smooth="yes"/>
      <point x="398" y="48"/>
      <point x="338" y="63"/>
      <point x="289" y="128" type="curve"/>
    </contour>
  </outline>
</glyph>
<glyph name="y" format="2">
  <advance width="798"/>
  <unicode hex="0079"/>
  <outline>
    <contour>
      <point x="672" y="377" type="line"/>
      <point x="745" y="377" type="line"/>
      <point x="745" y="444" type="line"/>
      <point x="718" y="442"/>
      <point x="686" y="440"/>
      <point x="644" y="440" type="curve" smooth="yes"/>
      <point x="608" y="440"/>
      <point x="567" y="441"/>
      <point x="531" y="444" type="curve"/>
      <point x="531" y="377" type="line"/>
      <point x="578" y="377" type="line"/>
      <point x="445" y="126" type="line"/>
      <point x="283" y="377" type="line"/>
      <point x="323" y="377" type="line"/>
      <point x="323" y="444" type="line"/>
      <point x="275" y="441"/>
      <point x="210" y="440"/>
      <point x="185" y="440" type="curve" smooth="yes"/>
      <point x="143" y="440"/>
      <point x="100" y="441"/>
      <point x="58" y="444" type="curve"/>
      <point x="58" y="377" type="line"/>
      <point x="134" y="377" type="line"/>
      <point x="370" y="12" type="line" smooth="yes"/>
      <point x="376" y="2"/>
      <point x="376" y="1"/>
      <point x="376" y="0" type="curve" smooth="yes"/>
      <point x="376" y="-3"/>
      <point x="361" y="-31"/>
      <point x="352" y="-47" type="curve" smooth="yes"/>
      <point x="333" y="-84"/>
      <point x="300" y="-146"/>
      <point x="184" y="-146" type="curve" smooth="yes"/>
      <point x="178" y="-146"/>
      <point x="170" y="-146"/>
      <point x="170" y="-144" type="curve" smooth="yes"/>
      <point x="170" y="-142"/>
      <point x="171" y="-141"/>
      <point x="173" y="-139" type="curve"/>
      <point x="185" y="-123"/>
      <point x="187" y="-105"/>
      <point x="187" y="-94" type="curve" smooth="yes"/>
      <point x="187" y="-48"/>
      <point x="153" y="-23"/>
      <point x="116" y="-23" type="curve" smooth="yes"/>
      <point x="79" y="-23"/>
      <point x="45" y="-48"/>
      <point x="45" y="-94" type="curve" smooth="yes"/>
      <point x="45" y="-152"/>
      <point x="99" y="-202"/>
      <point x="182" y="-202" type="curve" smooth="yes"/>
      <point x="248" y="-202"/>
      <point x="375" y="-180"/>
      <point x="433" y="-71" type="curve" smooth="yes"/>
    </contour>
  </outline>
</glyph>
<glyph name="cedilla" format="2">
  <advance width="677"/>
  <unicode hex="00B8"/>
  <outline>
    <contour>
      <point x="313" y="-10" type="line"/>
      <point x="313" y="-66" type="line"/>
      <point x="332" y="-66" type="line" smooth="yes"/>
      <point x="380" y="-66"/>
      <point x="434" y="-72"/>
      <point x="434" y="-112" type="curve" smooth="yes"/>
      <point x="434" y="-159"/>
      <point x="284" y="-159"/>
      <point x="246" y="-159" type="curve" smooth="yes"/>
      <point x="192" y="-159" type="line"/>
      <point x="192" y="-215" type="line"/>
      <point x="261" y="-215" type="line" smooth="yes"/>
      <point x="325" y="-215"/>
      <point x="389" y="-213"/>
      <point x="452" y="-200" type="curve" smooth="yes"/>
      <point x="513" y="-188"/>
      <point x="567" y="-165"/>
      <point x="567" y="-112" type="curve" smooth="yes"/>
      <point x="567" y="-37"/>
      <point x="493" y="-10"/>
      <point x="355" y="-10" type="curve" smooth="yes"/>
    </contour>
  </outline>
</glyph>
<glyph name="germandbls" format="2">
  <advance width="762"/>
  <unicode hex="00DF"/>
  <outline>
    <contour>
      <point x="547" y="414" type="curve"/>
      <point x="594" y="434"/>
      <point x="664" y="477"/>
      <point x="664" y="558" type="curve" smooth="yes"/>
      <point x="664" y="622"/>
      <point x="602" y="702"/>
      <point x="407" y="702" type="curve" smooth="yes"/>
      <point x="256" y="702"/>
      <point x="156" y="650"/>
      <point x="156" y="552" type="curve" smooth="yes"/>
      <point x="156" y="444" type="line"/>
      <point x="84" y="444" type="line"/>
      <point x="84" y="377" type="line"/>
      <point x="156" y="377" type="line"/>
      <point x="156" y="67" type="line"/>
      <point x="84" y="67" type="line"/>
      <point x="84" y="0" type="line"/>
      <point x="123" y="3"/>
      <point x="193" y="4"/>
      <point x="207" y="4" type="curve" smooth="yes"/>
      <point x="214" y="4"/>
      <point x="254" y="4"/>
      <point x="281" y="0" type="curve"/>
      <point x="281" y="550" type="line" smooth="yes"/>
      <point x="281" y="579"/>
      <point x="281" y="646"/>
      <point x="406" y="646" type="curve" smooth="yes"/>
      <point x="487" y="646"/>
      <point x="526" y="618"/>
      <point x="526" y="558" type="curve" smooth="yes"/>
      <point x="526" y="486"/>
      <point x="482" y="448"/>
      <point x="395" y="444" type="curve" smooth="yes"/>
      <point x="376" y="443"/>
      <point x="362" y="443"/>
      <point x="362" y="416" type="curve" smooth="yes"/>
      <point x="362" y="390"/>
      <point x="376" y="389"/>
      <point x="391" y="388" type="curve" smooth="yes"/>
      <point x="520" y="382"/>
      <point x="567" y="294"/>
      <point x="567" y="180" type="curve" smooth="yes"/>
      <point x="567" y="151"/>
      <point x="567" y="48"/>
      <point x="451" y="48" type="curve" smooth="yes"/>
      <point x="439" y="48"/>
      <point x="435" y="50"/>
      <point x="431" y="52" type="curve"/>
      <point x="434" y="56"/>
      <point x="445" y="70"/>
      <point x="445" y="93" type="curve" smooth="yes"/>
      <point x="445" y="130"/>
      <point x="417" y="154"/>
      <point x="384" y="154" type="curve" smooth="yes"/>
      <point x="348" y="154"/>
      <point x="322" y="128"/>
      <point x="322" y="92" type="curve" smooth="yes"/>
      <point x="322" y="46"/>
      <point x="362" y="-8"/>
      <point x="453" y="-8" type="curve" smooth="yes"/>
      <point x="606" y="-8"/>
      <point x="705" y="69"/>
      <point x="705" y="180" type="curve" smooth="yes"/>
      <point x="705" y="338"/>
      <point x="580" y="398"/>
    </contour>
  </outline>
</glyph>
<glyph name="oslash" format="2">
  <advance width="758"/>
  <unicode hex="00F8"/>
  <outline>
    <contour>
      <point x="515" y="438" type="line"/>
      <point x="458" y="456"/>
      <point x="395" y="456"/>
      <point x="379" y="456" type="curve" smooth="yes"/>
      <point x="142" y="456"/>
      <point x="57" y="327"/>
      <point x="57" y="217" type="curve" smooth="yes"/>
      <point x="57" y="168"/>
      <point x="78" y="79"/>
      <point x="188" y="29" type="curve"/>
      <point x="102" y="-79" type="line"/>
      <point x="145" y="-115" type="line"/>
      <point x="243" y="8" type="line"/>
      <point x="296" y="-6"/>
      <point x="350" y="-8"/>
      <point x="379" y="-8" type="curve" smooth="yes"/>
      <point x="614" y="-8"/>
      <point x="701" y="111"/>
      <point x="701" y="217" type="curve" smooth="yes"/>
      <point x="701" y="259"/>
      <point x="689" y="355"/>
      <point x="571" y="417" type="curve"/>
      <point x="656" y="524" type="line"/>
      <point x="613" y="560" type="line"/>
    </contour>
    <contour>
      <point x="233" y="85" type="line"/>
      <point x="191" y="121"/>
      <point x="190" y="180"/>
      <point x="190" y="219" type="curve" smooth="yes"/>
      <point x="190" y="307"/>
      <point x="203" y="400"/>
      <point x="379" y="400" type="curve" smooth="yes"/>
      <point x="397" y="400"/>
      <point x="437" y="400"/>
      <point x="474" y="387" type="curve"/>
    </contour>
    <contour>
      <point x="524" y="359" type="line"/>
      <point x="564" y="325"/>
      <point x="568" y="266"/>
      <point x="568" y="219" type="curve" smooth="yes"/>
      <point x="568" y="127"/>
      <point x="552" y="48"/>
      <point x="379" y="48" type="curve" smooth="yes"/>
      <point x="358" y="48"/>
      <point x="322" y="48"/>
      <point x="285" y="59" type="curve"/>
    </contour>
  </outline>
</glyph>
<glyph name="breve" format="2">
  <advance width="758"/>
  <unicode hex="02D8"/>
  <outline>
    <contour>
      <point x="552" y="694" type="line"/>
      <point x="548" y="597"/>
      <point x="411" y="593"/>
      <point x="379" y="593" type="curve" smooth="yes"/>
      <point x="346" y="593"/>
      <point x="210" y="597"/>
      <point x="206" y="694" type="curve"/>
      <point x="150" y="694" type="line"/>
      <point x="154" y="566"/>
      <point x="280" y="511"/>
      <point x="379" y="511" type="curve" smooth="yes"/>
      <point x="478" y="511"/>
      <point x="604" y="566"/>
      <point x="608" y="694" type="curve"/>
    </contour>
  </outline>
</glyph>
<glyph name="Pi" format="2">
  <advance width="1152"/>
  <unicode hex="03A0"/>
  <outline>
    <contour>
      <point x="955" y="611" type="line"/>
      <point x="1061" y="611" type="line"/>
      <point x="1061" y="678" type="line"/>
      <point x="92" y="678" type="line"/>
      <point x="92" y="611" type="line"/>
      <point x="198" y="611" type="line"/>
      <point x="198" y="67" type="line"/>
      <point x="92" y="67" type="line"/>
      <point x="92" y="0" type="line"/>
      <point x="151" y="3"/>
      <point x="241" y="4"/>
      <point x="276" y="4" type="curve" smooth="yes"/>
      <point x="297" y="4"/>
      <point x="394" y="3"/>
      <point x="460" y="0" type="curve"/>
      <point x="460" y="67" type="line"/>
      <point x="354" y="67" type="line"/>
      <point x="354" y="611" type="line"/>
      <point x="799" y="611" type="line"/>
      <point x="799" y="67" type="line"/>
      <point x="693" y="67" type="line"/>
      <point x="693" y="0" type="line"/>
      <point x="752" y="3"/>
      <point x="842" y="4"/>
      <point x="877" y="4" type="curve" smooth="yes"/>
      <point x="898" y="4"/>
      <point x="995" y="3"/>
      <point x="1061" y="0" type="curve"/>
      <point x="1061" y="67" type="line"/>
      <point x="955" y="67" type="line"/>
    </contour>
  </outline>
</glyph>
<glyph name="Sigma" format="2">
  <advance width="1080"/>
  <unicode hex="03A3"/>
  <outline>
    <contour>
      <point x="609" y="318" type="line" smooth="yes"/>
      <point x="620" y="327"/>
      <point x="625" y="331"/>
      <point x="625" y="343" type="curve" smooth="yes"/>
      <point x="625" y="354"/>
      <point x="622" y="357"/>
      <point x="612" y="366" type="curve" smooth="yes"/>
      <point x="342" y="619" type="line"/>
      <point x="598" y="619" type="line" smooth="yes"/>
      <point x="616" y="619"/>
      <point x="722" y="618"/>
      <point x="781" y="603" type="curve" smooth="yes"/>
      <point x="820" y="592"/>
      <point x="883" y="556"/>
      <point x="900" y="480" type="curve"/>
      <point x="983" y="480" type="line"/>
      <point x="944" y="686" type="line"/>
      <point x="136" y="686" type="line" smooth="yes"/>
      <point x="114" y="686"/>
      <point x="98" y="686"/>
      <point x="98" y="652" type="curve" smooth="yes"/>
      <point x="98" y="634"/>
      <point x="100" y="631"/>
      <point x="112" y="620" type="curve" smooth="yes"/>
      <point x="445" y="309" type="line"/>
      <point x="112" y="49" type="line" smooth="yes"/>
      <point x="103" y="42"/>
      <point x="98" y="33"/>
      <point x="98" y="25" type="curve" smooth="yes"/>
      <point x="98" y="0"/>
      <point x="122" y="0"/>
      <point x="136" y="0" type="curve" smooth="yes"/>
      <point x="944" y="0" type="line"/>
      <point x="983" y="223" type="line"/>
      <point x="900" y="223" type="line"/>
      <point x="885" y="148"/>
      <point x="824" y="111"/>
      <point x="788" y="101" type="curve" smooth="yes"/>
      <point x="747" y="90"/>
      <point x="679" y="84"/>
      <point x="609" y="84" type="curve" smooth="yes"/>
      <point x="310" y="84" type="line"/>
    </contour>
  </outline>
</glyph>
<glyph name="Psi" format="2">
  <advance width="1161"/>
  <unicode hex="03A8"/>
  <outline>
    <contour>
      <point x="642" y="619" type="line"/>
      <point x="774" y="619" type="line"/>
      <point x="774" y="686" type="line"/>
      <point x="722" y="682"/>
      <point x="627" y="682"/>
      <point x="572" y="682" type="curve" smooth="yes"/>
      <point x="517" y="682"/>
      <point x="423" y="682"/>
      <point x="371" y="686" type="curve"/>
      <point x="371" y="619" type="line"/>
      <point x="503" y="619" type="line"/>
      <point x="503" y="230" type="line"/>
      <point x="396" y="242"/>
      <point x="330" y="302"/>
      <point x="328" y="402" type="curve" smooth="yes"/>
      <point x="326" y="493"/>
      <point x="274" y="537"/>
      <point x="205" y="537" type="curve" smooth="yes"/>
      <point x="136" y="537" type="line" smooth="yes"/>
      <point x="119" y="537"/>
      <point x="98" y="537"/>
      <point x="98" y="509" type="curve" smooth="yes"/>
      <point x="98" y="484"/>
      <point x="114" y="482"/>
      <point x="130" y="481" type="curve"/>
      <point x="169" y="476"/>
      <point x="188" y="440"/>
      <point x="189" y="417" type="curve" smooth="yes"/>
      <point x="191" y="346"/>
      <point x="212" y="275"/>
      <point x="300" y="223" type="curve" smooth="yes"/>
      <point x="343" y="198"/>
      <point x="413" y="176"/>
      <point x="503" y="172" type="curve"/>
      <point x="503" y="67" type="line"/>
      <point x="371" y="67" type="line"/>
      <point x="371" y="0" type="line"/>
      <point x="423" y="4"/>
      <point x="517" y="4"/>
      <point x="572" y="4" type="curve" smooth="yes"/>
      <point x="627" y="4"/>
      <point x="722" y="4"/>
      <point x="774" y="0" type="curve"/>
      <point x="774" y="67" type="line"/>
      <point x="642" y="67" type="line"/>
      <point x="642" y="171" type="line"/>
      <point x="734" y="176"/>
      <point x="803" y="194"/>
      <point x="858" y="223" type="curve" smooth="yes"/>
      <point x="944" y="270"/>
      <point x="970" y="351"/>
      <point x="972" y="401" type="curve" smooth="yes"/>
      <point x="973" y="423"/>
      <point x="975" y="475"/>
      <point x="1035" y="481" type="curve" smooth="yes"/>
      <point x="1045" y="482"/>
      <point x="1063" y="484"/>
      <point x="1063" y="509" type="curve" smooth="yes"/>
      <point x="1063" y="537"/>
      <point x="1042" y="537"/>
      <point x="1025" y="537" type="curve" smooth="yes"/>
      <point x="956" y="537" type="line" smooth="yes"/>
      <point x="922" y="537"/>
      <point x="895" y="530"/>
      <point x="864" y="498" type="curve" smooth="yes"/>
      <point x="835" y="466"/>
      <point x="834" y="424"/>
      <point x="833" y="401" type="curve" smooth="yes"/>
      <point x="830" y="290"/>
      <point x="746" y="240"/>
      <point x="642" y="229" type="curve"/>
    </contour>
  </outline>
</glyph>
<glyph name="quotedblright" format="2">
  <advance width="769"/>
  <unicode hex="201D"/>
  <outline>
    <contour>
      <point x="199" y="535" type="curve"/>
      <point x="186" y="437"/>
      <point x="120" y="394"/>
      <point x="98" y="379" type="curve" smooth="yes"/>
      <point x="92" y="375"/>
      <point x="85" y="370"/>
      <point x="85" y="358" type="curve" smooth="yes"/>
      <point x="85" y="346"/>
      <point x="101" y="328"/>
      <point x="115" y="328" type="curve" smooth="yes"/>
      <point x="136" y="328"/>
      <point x="257" y="413"/>
      <point x="257" y="560" type="curve" smooth="yes"/>
      <point x="257" y="637"/>
      <point x="212" y="694"/>
      <point x="151" y="694" type="curve" smooth="yes"/>
      <point x="98" y="694"/>
      <point x="65" y="654"/>
      <point x="65" y="608" type="curve" smooth="yes"/>
      <point x="65" y="562"/>
      <point x="98" y="522"/>
      <point x="151" y="522" type="curve" smooth="yes"/>
      <point x="179" y="522"/>
      <point x="198" y="535"/>
    </contour>
    <contour>
      <point x="492" y="535" type="curve"/>
      <point x="479" y="437"/>
      <point x="413" y="394"/>
      <point x="391" y="379" type="curve" smooth="yes"/>
      <point x="385" y="375"/>
      <point x="378" y="370"/>
      <point x="378" y="358" type="curve" smooth="yes"/>
      <point x="378" y="346"/>
      <point x="394" y="328"/>
      <point x="408" y="328" type="curve" smooth="yes"/>
      <point x="429" y="328"/>
      <point x="550" y="413"/>
      <point x="550" y="560" type="curve" smooth="yes"/>
      <point x="550" y="637"/>
      <point x="505" y="694"/>
      <point x="444" y="694" type="curve" smooth="yes"/>
      <point x="391" y="694"/>
      <point x="358" y="654"/>
      <point x="358" y="608" type="curve" smooth="yes"/>
      <point x="358" y="562"/>
      <point x="391" y="522"/>
      <point x="444" y="522" type="curve" smooth="yes"/>
      <point x="472" y="522"/>
      <point x="491" y="535"/>
    </contour>
  </outline>
</glyph>
<glyph name="Omega" format="2">
  <advance width="1080"/>
  <unicode hex="2126"/>
  <outline>
    <contour>
      <point x="1000" y="188" type="line"/>
      <point x="917" y="188" type="line"/>
      <point x="901" y="120"/>
      <point x="898" y="119"/>
      <point x="830" y="119" type="curve" smooth="yes"/>
      <point x="746" y="119" type="line"/>
      <point x="763" y="145"/>
      <point x="789" y="174"/>
      <point x="828" y="211" type="curve" smooth="yes"/>
      <point x="909" y="286"/>
      <point x="983" y="354"/>
      <point x="983" y="456" type="curve" smooth="yes"/>
      <point x="983" y="567"/>
      <point x="875" y="703"/>
      <point x="541" y="703" type="curve" smooth="yes"/>
      <point x="204" y="703"/>
      <point x="98" y="565"/>
      <point x="98" y="456" type="curve" smooth="yes"/>
      <point x="98" y="394"/>
      <point x="126" y="325"/>
      <point x="219" y="241" type="curve" smooth="yes"/>
      <point x="241" y="222"/>
      <point x="306" y="164"/>
      <point x="335" y="119" type="curve"/>
      <point x="251" y="119" type="line" smooth="yes"/>
      <point x="183" y="119"/>
      <point x="180" y="120"/>
      <point x="164" y="188" type="curve"/>
      <point x="81" y="188" type="line"/>
      <point x="128" y="0" type="line"/>
      <point x="383" y="0" type="line" smooth="yes"/>
      <point x="403" y="0"/>
      <point x="421" y="0"/>
      <point x="421" y="32" type="curve" smooth="yes"/>
      <point x="421" y="111"/>
      <point x="374" y="196"/>
      <point x="344" y="251" type="curve" smooth="yes"/>
      <point x="306" y="320"/>
      <point x="270" y="385"/>
      <point x="270" y="457" type="curve" smooth="yes"/>
      <point x="270" y="592"/>
      <point x="388" y="647"/>
      <point x="540" y="647" type="curve" smooth="yes"/>
      <point x="652" y="647"/>
      <point x="811" y="616"/>
      <point x="811" y="457" type="curve" smooth="yes"/>
      <point x="811" y="387"/>
      <point x="777" y="323"/>
      <point x="742" y="259" type="curve" smooth="yes"/>
      <point x="705" y="192"/>
      <point x="660" y="110"/>
      <point x="660" y="32" type="curve" smooth="yes"/>
      <point x="660" y="0"/>
      <point x="678" y="0"/>
      <point x="698" y="0" type="curve" smooth="yes"/>
      <point x="953" y="0" type="line"/>
    </contour>
  </outline>
</glyph>
<glyph name="dotlessj" format="2">
  <advance width="476"/>
  <outline>
    <contour>
      <point x="150" y="444" type="line"/>
      <point x="150" y="377" type="line"/>
      <point x="168" y="377"/>
      <point x="192" y="377"/>
      <point x="207" y="374" type="curve" smooth="yes"/>
      <point x="229" y="370"/>
      <point x="229" y="358"/>
      <point x="229" y="337" type="curve" smooth="yes"/>
      <point x="229" y="-32" type="line" smooth="yes"/>
      <point x="229" y="-110"/>
      <point x="182" y="-146"/>
      <point x="136" y="-146" type="curve" smooth="yes"/>
      <point x="131" y="-146"/>
      <point x="98" y="-144"/>
      <point x="98" y="-140" type="curve" smooth="yes"/>
      <point x="98" y="-139"/>
      <point x="99" y="-138"/>
      <point x="99" y="-137" type="curve"/>
      <point x="107" y="-123"/>
      <point x="110" y="-111"/>
      <point x="110" y="-96" type="curve" smooth="yes"/>
      <point x="110" y="-52"/>
      <point x="78" y="-21"/>
      <point x="35" y="-21" type="curve" smooth="yes"/>
      <point x="-9" y="-21"/>
      <point x="-40" y="-53"/>
      <point x="-40" y="-96" type="curve" smooth="yes"/>
      <point x="-40" y="-167"/>
      <point x="33" y="-202"/>
      <point x="131" y="-202" type="curve" smooth="yes"/>
      <point x="236" y="-202"/>
      <point x="354" y="-153"/>
      <point x="354" y="-35" type="curve" smooth="yes"/>
      <point x="354" y="452" type="line"/>
    </contour>
  </outline>
</glyph>
<glyph name="sfthyphen" format="2">
  <advance width="258"/>
  <outline>
    <contour>
      <point x="419" y="282" type="line"/>
      <point x="33" y="282" type="line"/>
      <point x="33" y="162" type="line"/>
      <point x="419" y="162" type="line"/>
    </contour>
  </outline>
</glyph>
<glyph name="suppress" format="2">
  <advance width="436"/>
  <outline>
    <contour>
      <point x="420" y="333" type="line"/>
      <point x="408" y="399" type="line"/>
      <point x="50" y="333" type="line"/>
      <point x="62" y="267" type="line"/>
    </contour>
  </outline>
</glyph>
